<svg xmlns="http://www.w3.org/2000/svg" viewBox="0 0 64 64"><defs><style>.cls-1{fill:#0072ff;}</style></defs><title>audio specific file</title><g id="Layer_2" data-name="Layer 2"><path class="cls-1" d="M51.33,20h1.81A1.2,1.2,0,0,0,54,17.94L42.1,6.05A1.2,1.2,0,0,0,40,6.9V8.71A11.29,11.29,0,0,0,51.33,20Z"/><path class="cls-1" d="M51.33,24h0A15.29,15.29,0,0,1,36,8.71h0A4.71,4.71,0,0,0,31.34,4h-12A11.29,11.29,0,0,0,8,15.29V48.71A11.29,11.29,0,0,0,19.33,60H44.76A11.29,11.29,0,0,0,56,48.71v-20A4.71,4.71,0,0,0,51.33,24ZM46,40H41.53l-2.79,9.12a2.52,2.52,0,0,1-2.41,1.79h-.17a2.52,2.52,0,0,1-2.33-2.1l-2.37-14L28.3,45.3a2.53,2.53,0,0,1-4.68.4L20.76,40H18a2,2,0,0,1,0-4h3.67a2.52,2.52,0,0,1,2.26,1.39l1.6,3.2,3.9-13a2.53,2.53,0,0,1,4.92.31L36.73,42,38,37.79A2.52,2.52,0,0,1,40.44,36H46a2,2,0,0,1,0,4Z"/></g></svg>