<svg xmlns="http://www.w3.org/2000/svg" viewBox="0 0 64 64"><defs><style>.cls-1{fill:#0072ff;}</style></defs><title>video file</title><g id="Layer_2" data-name="Layer 2"><path class="cls-1" d="M51.29,20H53.1A1.2,1.2,0,0,0,54,17.94L42.06,6.05A1.2,1.2,0,0,0,40,6.9V8.71A11.29,11.29,0,0,0,51.29,20Z"/><path class="cls-1" d="M51.29,24h0A15.29,15.29,0,0,1,36,8.71h0A4.71,4.71,0,0,0,31.3,4h-12A11.29,11.29,0,0,0,8,15.29V48.71A11.29,11.29,0,0,0,19.29,60H44.72A11.29,11.29,0,0,0,56,48.71v-20A4.71,4.71,0,0,0,51.29,24ZM46,42.74a2.21,2.21,0,0,1-3,2l-1.49-.6a1.67,1.67,0,0,0-2.1.82,5.55,5.55,0,0,1-4.92,3H23.55A5.55,5.55,0,0,1,18,42.45V33.55A5.55,5.55,0,0,1,23.55,28H34.46a5.55,5.55,0,0,1,4.92,3,1.67,1.67,0,0,0,2.1.82l1.49-.6a2.21,2.21,0,0,1,3,2Z"/></g></svg>